<svg aria-hidden="true" style="position: absolute; width: 0; height: 0; overflow: hidden;" version="1.1" xmlns="http://www.w3.org/2000/svg" xmlns:xlink="http://www.w3.org/1999/xlink">
<defs>
<symbol id="icon-icon-animation" viewBox="0 0 32 32">
<path fill="#000" style="fill: var(--color1, #000)" d="M32.002 16.001c0 8.837-7.164 16.001-16.001 16.001s-16.001-7.164-16.001-16.001c0-8.837 7.164-16.001 16.001-16.001s16.001 7.164 16.001 16.001z"></path>
<path fill="#fff" style="fill: var(--color2, #fff)" d="M19.413 11.817c0.323-0.285 0.51-0.691 0.518-1.121 0-0.002 0-0.004 0-0.006 0-0.854-0.692-1.546-1.546-1.546-0.002 0-0.004 0-0.006 0h0c-0.361 0.010-0.69 0.138-0.952 0.347l0.003-0.002c-0.293 0.285-0.478 0.681-0.488 1.119l-0 0.002c0.007 0.843 0.693 1.524 1.537 1.524 0.353 0 0.678-0.119 0.938-0.319l-0.004 0.003zM14.411 12.076c0 0.029-0.029 0.029-0.057 0.057v0.029c-0.645 0.127-1.21 0.411-1.673 0.81l0.005-0.004c-0.287 0.27-0.547 0.569-0.776 0.891-0.575 0.805 0.776 1.581 1.323 0.776 0.718-1.007 1.609-1.294 2.587-0.977-0.325 0.548-0.842 1.517-1.34 2.498l-0.213 0.462c-0.633 1.236-1.983 2.214-3.307 1.466-0.122-0.079-0.271-0.126-0.431-0.126-0.443 0-0.801 0.359-0.801 0.801 0 0.283 0.146 0.531 0.367 0.674l0.003 0.002c0.555 0.322 1.221 0.512 1.931 0.512 1.227 0 2.322-0.567 3.037-1.453l0.006-0.007c0.029 0 0.087 0.029 0.114 0.029 0.857 0.357 1.661 0.831 2.387 1.409 0.345 0.287 0.949 1.752 1.293 2.501 0.134 0.26 0.401 0.434 0.709 0.434 0.19 0 0.364-0.066 0.5-0.177l-0.002 0.001c0.225-0.218 0.272-0.561 0.115-0.832-0.403-0.832-1.064-2.53-1.61-2.934-0.393-0.325-0.834-0.656-1.289-0.967l-0.062-0.040 0.057-0.057c-0.147-0.098-0.335-0.212-0.526-0.321l-0.049-0.025c0.489-0.919 0.978-1.81 1.495-2.702 1.206 0.381 2.523 0.109 3.479-0.719 0.295-0.263 0.556-0.562 0.776-0.892 0.546-0.718-0.517-1.437-1.15-0.949-0.035 0.032-0.064 0.071-0.086 0.113l-0.001 0.002c-0.278 0.423-0.671 0.751-1.134 0.943l-0.017 0.006c-0.029 0.029-0.057 0.029-0.057 0.057h-0.029c-0.23 0.082-0.495 0.129-0.771 0.129-0.483 0-0.933-0.145-1.307-0.393l0.009 0.005 0.058-0.058h0.029c-0.031-0.029-0.070-0.050-0.114-0.057l-0.001-0c-0.152-0.103-0.331-0.208-0.516-0.303l-0.030-0.014c-0.635-0.414-1.412-0.661-2.246-0.661-0.243 0-0.481 0.021-0.712 0.061l0.025-0.004 0.003 0.002z"></path>
</symbol>
<symbol id="icon-icon-business" viewBox="0 0 32 32">
<path fill="#000" style="fill: var(--color1, #000)" d="M32.002 16.001c0 8.837-7.164 16.001-16.001 16.001s-16.001-7.164-16.001-16.001c0-8.837 7.164-16.001 16.001-16.001s16.001 7.164 16.001 16.001z"></path>
<path fill="#fff" style="fill: var(--color2, #fff)" d="M20.001 12.572h-1.143c0-1.577-1.28-2.857-2.857-2.857s-2.857 1.28-2.857 2.857h-1.143c-0.629 0-1.137 0.514-1.137 1.143l-0.006 6.858c0 0.629 0.514 1.143 1.143 1.143h8.001c0.629 0 1.143-0.514 1.143-1.143v-6.858c0-0.629-0.514-1.143-1.143-1.143zM16.001 10.858c0.949 0 1.714 0.766 1.714 1.714h-3.429c0-0.949 0.766-1.714 1.714-1.714zM16.001 16.573c-1.577 0-2.857-1.28-2.857-2.857h1.143c0 0.949 0.766 1.714 1.714 1.714s1.714-0.766 1.714-1.714h1.143c0 1.577-1.28 2.857-2.857 2.857z"></path>
</symbol>
<symbol id="icon-icon-crypto" viewBox="0 0 32 32">
<path fill="#000" style="fill: var(--color1, #000)" d="M32.002 16.001c0 8.837-7.164 16.001-16.001 16.001s-16.001-7.164-16.001-16.001c0-8.837 7.164-16.001 16.001-16.001s16.001 7.164 16.001 16.001z"></path>
<path fill="#fff" style="fill: var(--color2, #fff)" d="M14.858 16.001c-0.629 0-1.143 0.514-1.143 1.143s0.514 1.143 1.143 1.143 1.143-0.514 1.143-1.143-0.514-1.143-1.143-1.143zM12.572 13.715c-0.629 0-1.143 0.514-1.143 1.143s0.514 1.143 1.143 1.143 1.143-0.514 1.143-1.143-0.514-1.143-1.143-1.143zM12.572 18.287c-0.629 0-1.143 0.514-1.143 1.143s0.514 1.143 1.143 1.143 1.143-0.514 1.143-1.143-0.514-1.143-1.143-1.143zM19.43 13.715c0.629 0 1.143-0.514 1.143-1.143s-0.514-1.143-1.143-1.143-1.143 0.514-1.143 1.143 0.514 1.143 1.143 1.143zM17.144 18.287c-0.629 0-1.143 0.514-1.143 1.143s0.514 1.143 1.143 1.143 1.143-0.514 1.143-1.143-0.514-1.143-1.143-1.143zM19.43 16.001c-0.629 0-1.143 0.514-1.143 1.143s0.514 1.143 1.143 1.143 1.143-0.514 1.143-1.143-0.514-1.143-1.143-1.143zM17.144 13.715c-0.629 0-1.143 0.514-1.143 1.143s0.514 1.143 1.143 1.143 1.143-0.514 1.143-1.143-0.514-1.143-1.143-1.143zM14.858 11.429c-0.629 0-1.143 0.514-1.143 1.143s0.514 1.143 1.143 1.143 1.143-0.514 1.143-1.143-0.514-1.143-1.143-1.143z"></path>
</symbol>
<symbol id="icon-icon-design" viewBox="0 0 32 32">
<path fill="#000" style="fill: var(--color1, #000)" d="M32.002 16.001c0 8.837-7.164 16.001-16.001 16.001s-16.001-7.164-16.001-16.001c0-8.837 7.164-16.001 16.001-16.001s16.001 7.164 16.001 16.001z"></path>
<path fill="#fff" style="fill: var(--color2, #fff)" d="M20.001 10.858h-8.001c-0.629 0-1.143 0.514-1.143 1.143v8.001c0 0.629 0.514 1.143 1.143 1.143h8.001c0.629 0 1.143-0.514 1.143-1.143v-8.001c0-0.629-0.514-1.143-1.143-1.143zM20.001 20.001l-4-4.572v4.572h-4l4-4.572v-3.429h4v8.001z"></path>
</symbol>
<symbol id="icon-icon-photography" viewBox="0 0 32 32">
<path fill="#000" style="fill: var(--color1, #000)" d="M32.002 16.001c0 8.837-7.164 16.001-16.001 16.001s-16.001-7.164-16.001-16.001c0-8.837 7.164-16.001 16.001-16.001s16.001 7.164 16.001 16.001z"></path>
<path fill="#fff" style="fill: var(--color2, #fff)" d="M17.716 10.286l1.046 1.143h1.812c0.629 0 1.143 0.514 1.143 1.143v6.858c0 0.629-0.514 1.143-1.143 1.143h-9.143c-0.629 0-1.143-0.514-1.143-1.143v-6.858c0-0.629 0.514-1.143 1.143-1.143h1.812l1.046-1.143h3.429zM16.001 13.144c-1.577 0-2.857 1.28-2.857 2.857s1.28 2.857 2.857 2.857 2.857-1.28 2.857-2.857-1.28-2.857-2.857-2.857zM16.001 14.172c1.010 0 1.829 0.819 1.829 1.829s-0.819 1.829-1.829 1.829v0c-1.010 0-1.829-0.819-1.829-1.829s0.819-1.829 1.829-1.829v0z"></path>
</symbol>
<symbol id="icon-logo-dark" viewBox="0 0 124 32">
<path fill="#13183f" style="fill: var(--color3, #13183f)" d="M10.687 31.383c-2.384 0-4.456-0.563-6.217-1.688s-2.96-2.642-3.595-4.549l4.37-2.066c0.556 1.165 1.311 2.079 2.264 2.741s2.013 0.993 3.178 0.993c0.848 0 1.496-0.172 1.947-0.516s0.675-0.821 0.675-1.43c0-0.318-0.079-0.589-0.238-0.814s-0.397-0.43-0.715-0.616c-0.343-0.195-0.739-0.358-1.156-0.469l-0.035-0.008-3.695-1.033c-1.774-0.503-3.138-1.318-4.092-2.443s-1.43-2.456-1.43-3.993c0-1.351 0.344-2.529 1.033-3.536s1.655-1.794 2.9-2.364c1.245-0.569 2.675-0.854 4.29-0.854 2.119 0 3.979 0.497 5.582 1.49s2.735 2.39 3.397 4.191l-4.41 2.066c-0.318-0.9-0.894-1.622-1.728-2.165s-1.781-0.814-2.84-0.814c-0.768 0-1.371 0.159-1.808 0.477s-0.655 0.755-0.655 1.311c0 0.291 0.079 0.556 0.238 0.795s0.417 0.45 0.775 0.636c0.358 0.185 0.801 0.358 1.331 0.516l3.456 1.033c1.801 0.53 3.178 1.331 4.132 2.403s1.43 2.39 1.43 3.953c0 1.351-0.351 2.529-1.053 3.536s-1.675 1.794-2.92 2.364-2.715 0.854-4.41 0.854zM22.644 30.906v-30.073h5.959v19.268l-2.225-0.715 9.574-10.17h7.349l-7.866 8.74 7.826 12.951h-6.754l-6.555-11.004 3.456-0.874-6.634 7.23 1.827-3.456v8.104zM45.924 30.906v-21.691h5.959v21.691h-5.959zM45.924 7.269v-5.959h5.959v5.959h-5.959zM56.253 30.906v-30.073h5.959v30.073zM66.582 30.906v-30.073h5.959v30.073zM87.359 31.383c-2.304 0-4.304-0.51-5.999-1.529-1.666-0.999-3.002-2.393-3.905-4.056l-0.028-0.056c-0.927-1.721-1.39-3.628-1.39-5.721 0-2.172 0.483-4.105 1.45-5.8 0.949-1.67 2.273-3.026 3.864-3.985l0.049-0.027c1.642-0.98 3.496-1.47 5.562-1.47 1.722 0 3.244 0.271 4.569 0.814s2.443 1.304 3.357 2.284c0.887 0.95 1.595 2.080 2.063 3.327l0.023 0.069c0.477 1.285 0.715 2.682 0.715 4.191 0 0.424-0.020 0.841-0.060 1.251s-0.113 0.761-0.219 1.053h-16.248v-4.37h12.872l-2.821 2.066c0.265-1.139 0.252-2.152-0.040-3.039s-0.801-1.589-1.529-2.106c-0.728-0.516-1.622-0.775-2.682-0.775-1.033 0-1.92 0.252-2.662 0.755s-1.298 1.245-1.669 2.225c-0.371 0.98-0.516 2.172-0.437 3.575-0.106 1.218 0.040 2.291 0.437 3.218s1.006 1.649 1.827 2.165c0.821 0.516 1.814 0.775 2.98 0.775 1.059 0 1.966-0.212 2.721-0.636 0.744-0.416 1.344-1.010 1.756-1.726l0.012-0.022 4.767 2.264c-0.424 1.059-1.093 1.986-2.006 2.781s-1.993 1.41-3.238 1.847c-1.245 0.437-2.609 0.655-4.092 0.655zM111.394 31.383c-2.119 0-4.012-0.503-5.681-1.51-1.66-1.007-2.999-2.39-3.924-4.037l-0.028-0.055c-0.967-1.721-1.45-3.628-1.45-5.721 0-2.119 0.49-4.032 1.47-5.741 0.969-1.69 2.313-3.065 3.923-4.044l0.049-0.028c1.669-1.006 3.536-1.51 5.602-1.51 1.589 0 2.999 0.298 4.231 0.894s2.205 1.437 2.92 2.523l-0.914 1.192v-12.514h5.959v30.073h-5.562v-3.973l0.556 1.232c-0.742 1.059-1.748 1.861-3.019 2.403s-2.648 0.814-4.132 0.814zM112.109 26.020c1.086 0 2.039-0.252 2.86-0.755 0.825-0.514 1.482-1.228 1.913-2.076l0.014-0.030c0.463-0.9 0.695-1.933 0.695-3.099s-0.232-2.198-0.695-3.099c-0.445-0.878-1.102-1.592-1.905-2.093l-0.022-0.013c-0.821-0.503-1.774-0.755-2.86-0.755s-2.059 0.258-2.92 0.775c-0.851 0.511-1.533 1.225-1.992 2.077l-0.014 0.029c-0.477 0.887-0.715 1.913-0.715 3.079s0.238 2.198 0.715 3.099c0.466 0.886 1.15 1.601 1.982 2.092l0.024 0.013c0.861 0.503 1.834 0.755 2.92 0.755z"></path>
</symbol>
<symbol id="icon-logo-light" viewBox="0 0 124 32">
<path fill="#fff" style="fill: var(--color2, #fff)" d="M10.687 31.383c-2.384 0-4.456-0.563-6.217-1.688s-2.96-2.642-3.595-4.549l4.37-2.066c0.556 1.165 1.311 2.079 2.264 2.741s2.013 0.993 3.178 0.993c0.848 0 1.496-0.172 1.947-0.516s0.675-0.821 0.675-1.43c0-0.318-0.079-0.589-0.238-0.814s-0.397-0.43-0.715-0.616c-0.343-0.195-0.739-0.358-1.156-0.469l-0.035-0.008-3.695-1.033c-1.774-0.503-3.138-1.318-4.092-2.443s-1.43-2.456-1.43-3.993c0-1.351 0.344-2.529 1.033-3.536s1.655-1.794 2.9-2.364c1.245-0.569 2.675-0.854 4.29-0.854 2.119 0 3.979 0.497 5.582 1.49s2.735 2.39 3.397 4.191l-4.41 2.066c-0.318-0.9-0.894-1.622-1.728-2.165s-1.781-0.814-2.84-0.814c-0.768 0-1.371 0.159-1.808 0.477s-0.655 0.755-0.655 1.311c0 0.291 0.079 0.556 0.238 0.795s0.417 0.45 0.775 0.636c0.358 0.185 0.801 0.358 1.331 0.516l3.456 1.033c1.801 0.53 3.178 1.331 4.132 2.403s1.43 2.39 1.43 3.953c0 1.351-0.351 2.529-1.053 3.536s-1.675 1.794-2.92 2.364-2.715 0.854-4.41 0.854zM22.644 30.906v-30.073h5.959v19.268l-2.225-0.715 9.574-10.17h7.349l-7.866 8.74 7.826 12.951h-6.754l-6.555-11.004 3.456-0.874-6.634 7.23 1.827-3.456v8.104zM45.924 30.906v-21.691h5.959v21.691h-5.959zM45.924 7.269v-5.959h5.959v5.959h-5.959zM56.253 30.906v-30.073h5.959v30.073zM66.582 30.906v-30.073h5.959v30.073zM87.359 31.383c-2.304 0-4.304-0.51-5.999-1.529-1.666-0.999-3.002-2.393-3.905-4.056l-0.028-0.056c-0.927-1.721-1.39-3.628-1.39-5.721 0-2.172 0.483-4.105 1.45-5.8 0.949-1.67 2.273-3.026 3.864-3.985l0.049-0.027c1.642-0.98 3.496-1.47 5.562-1.47 1.722 0 3.244 0.271 4.569 0.814s2.443 1.304 3.357 2.284c0.887 0.95 1.595 2.080 2.063 3.327l0.023 0.069c0.477 1.285 0.715 2.682 0.715 4.191 0 0.424-0.020 0.841-0.060 1.251s-0.113 0.761-0.219 1.053h-16.248v-4.37h12.872l-2.821 2.066c0.265-1.139 0.252-2.152-0.040-3.039s-0.801-1.589-1.529-2.106c-0.728-0.516-1.622-0.775-2.682-0.775-1.033 0-1.92 0.252-2.662 0.755s-1.298 1.245-1.669 2.225c-0.371 0.98-0.516 2.172-0.437 3.575-0.106 1.218 0.040 2.291 0.437 3.218s1.006 1.649 1.827 2.165c0.821 0.516 1.814 0.775 2.98 0.775 1.059 0 1.966-0.212 2.721-0.636 0.744-0.416 1.344-1.010 1.756-1.726l0.012-0.022 4.767 2.264c-0.424 1.059-1.093 1.986-2.006 2.781s-1.993 1.41-3.238 1.847c-1.245 0.437-2.609 0.655-4.092 0.655zM111.394 31.383c-2.119 0-4.012-0.503-5.681-1.51-1.66-1.007-2.999-2.39-3.924-4.037l-0.028-0.055c-0.967-1.721-1.45-3.628-1.45-5.721 0-2.119 0.49-4.032 1.47-5.741 0.969-1.69 2.313-3.065 3.923-4.044l0.049-0.028c1.669-1.006 3.536-1.51 5.602-1.51 1.589 0 2.999 0.298 4.231 0.894s2.205 1.437 2.92 2.523l-0.914 1.192v-12.514h5.959v30.073h-5.562v-3.973l0.556 1.232c-0.742 1.059-1.748 1.861-3.019 2.403s-2.648 0.814-4.132 0.814zM112.109 26.020c1.086 0 2.039-0.252 2.86-0.755 0.825-0.514 1.482-1.228 1.913-2.076l0.014-0.030c0.463-0.9 0.695-1.933 0.695-3.099s-0.232-2.198-0.695-3.099c-0.445-0.878-1.102-1.592-1.905-2.093l-0.022-0.013c-0.821-0.503-1.774-0.755-2.86-0.755s-2.059 0.258-2.92 0.775c-0.851 0.511-1.533 1.225-1.992 2.077l-0.014 0.029c-0.477 0.887-0.715 1.913-0.715 3.079s0.238 2.198 0.715 3.099c0.466 0.886 1.15 1.601 1.982 2.092l0.024 0.013c0.861 0.503 1.834 0.755 2.92 0.755z"></path>
</symbol>
</defs>
</svg>
